<?xml version="1.0" encoding="utf-8"?>
<!-- Generator: Adobe Illustrator 19.2.0, SVG Export Plug-In . SVG Version: 6.00 Build 0)  -->
<svg version="1.1" id="Layer_1" xmlns="http://www.w3.org/2000/svg" xmlns:xlink="http://www.w3.org/1999/xlink" x="0px" y="0px"
	 viewBox="0 0 512 512" style="enable-background:new 0 0 512 512;" xml:space="preserve">
<g>
	<g>
		<path d="M500.5,86.4H450V10.2C450,4.6,445.5,0,439.8,0H11.5C5.9,0,1.3,4.6,1.3,10.2v169.1c0,5.6,4.6,10.2,10.2,10.2h428.3
			c5.6,0,10.2-4.6,10.2-10.2v-72.5h40.3v124.8l-266.4,47.2c-4.9,0.9-8.4,5.1-8.4,10v43.3h-17.8c-5.6,0-10.2,4.6-10.2,10.2v131.4
			c0,21.1,17.1,38.2,38.2,38.2c21.1,0,38.2-17.1,38.2-38.2V342.4c0-5.6-4.6-10.2-10.2-10.2h-17.8v-34.8l266.4-47.2
			c4.9-0.9,8.4-5.1,8.4-10V96.6C510.7,91,506.1,86.4,500.5,86.4z M21.7,169.1v-30.7h309.7c5.6,0,10.2-4.6,10.2-10.2
			S337,118,331.4,118H21.7V20.4h407.9v148.7H21.7z M243.4,352.6v121.2c0,9.8-8,17.8-17.8,17.8c-9.8,0-17.8-8-17.8-17.8V352.6H243.4z
			"/>
	</g>
</g>
<g>
	<g>
		<path d="M381.3,118h-8.5c-5.6,0-10.2,4.6-10.2,10.2c0,5.6,4.6,10.2,10.2,10.2h8.5c5.6,0,10.2-4.6,10.2-10.2S386.9,118,381.3,118z"
			/>
	</g>
</g>
</svg>
